<svg version="1.1" viewBox="0 0 24 24" xmlns="http://www.w3.org/2000/svg" width="24" height="24">
<style>
path:not([stroke]), circle, rect, polygon {
  fill: context-fill black;
}
path[stroke] {
  fill: none;
  stroke: context-fill black;
}
line, [stroke] {
  stroke: context-fill black;
}
@media (prefers-color-scheme: dark) {
  path:not([stroke]), circle, rect, polygon {
    fill: context-fill white;
  }
  path[stroke] {
    fill: none;
    stroke: context-fill white;
  }
  line, [stroke] {
    stroke: context-fill white;
  }
}
</style><path d="m8.6348 1.5469c-0.17639-0.0052405-0.35535 0.040964-0.51562 0.14258-0.42782 0.27032-0.55613 0.83627-0.28516 1.2637 0.12479 0.19737 0.3186 0.33798 0.53906 0.39648 0.12022 0.031903 0.27705 0.11533 0.34375 0.2207l0.26953 0.42383c-1.1334 0.66795-1.6895 1.7012-1.6895 2.6582 0 0.83002 0.47883 1.2478 1.3262 1.3359-0.71085 0.35464-1.3761 0.82731-1.9688 1.4199-0.10024 0.10025-0.19563 0.2023-0.28906 0.30664-0.3023-0.2156-0.85966-0.76007-0.95312-1.0312-0.18954-0.54999-0.068461-0.73432-0.56641-1.0215-1.0784-0.62373-2.4599-0.25321-3.082 0.82617-0.62373 1.0784-0.25321 2.458 0.82617 3.0801 0.49769 0.28766 0.59688 0.093292 1.168-0.017578 0.25753-0.05 0.9078 0.12027 1.2754 0.26758-0.18054 0.429-0.32015 0.87084-0.41797 1.3203-0.39504-0.06467-0.98966-0.23309-1.1777-0.39648-0.43914-0.38154-0.42714-0.59989-1.002-0.59961-1.2458-9.51e-4 -2.2568 1.01-2.2559 2.2559-9.51e-4 1.2458 1.01 2.2549 2.2559 2.2539 0.57484 2.76e-4 0.56281-0.21805 1.002-0.59961 0.17024-0.14792 0.67372-0.29959 1.0605-0.375 0.057292 0.46751 0.15819 0.93055 0.30273 1.3828-0.36499 0.11957-0.8336 0.22422-1.043 0.18359-0.57107-0.11085-0.6703-0.30523-1.168-0.017579-1.0794 0.62208-1.4499 2.0036-0.82617 3.082 0.62208 1.0794 2.0016 1.4479 3.0801 0.82422 0.49797-0.28718 0.38078-0.47147 0.57031-1.0215 0.063212-0.18345 0.33714-0.49302 0.60156-0.74023 0.19503 0.25205 0.4074 0.49526 0.63867 0.72656 2.9517 2.9529 7.737 2.954 10.689 0.001953 0.23161-0.23164 0.44535-0.47411 0.64062-0.72656 0.26414 0.24707 0.53842 0.55504 0.60156 0.73828 0.18953 0.55002 0.070389 0.7343 0.56836 1.0215 1.0784 0.62373 2.4599 0.25516 3.082-0.82422 0.62373-1.0784 0.25321-2.4599-0.82617-3.082-0.49767-0.28765-0.59885-0.093271-1.1699 0.017579-0.20921 0.0406-0.67615-0.06414-1.041-0.18359 0.14452-0.45233 0.24546-0.91525 0.30273-1.3828 0.3862 0.07544 0.88842 0.22713 1.0586 0.375 0.43915 0.38156 0.42906 0.59989 1.0039 0.59961 1.2458 9.51e-4 2.2568-1.0081 2.2559-2.2539 9.5e-4 -1.2458-1.01-2.2568-2.2559-2.2559-0.57482-2.77e-4 -0.56476 0.21808-1.0039 0.59961-0.18805 0.16337-0.78126 0.3318-1.1758 0.39648-0.09785-0.44954-0.23736-0.89127-0.41797-1.3203 0.36768-0.14726 1.018-0.31755 1.2754-0.26758 0.57109 0.11087 0.66832 0.30524 1.166 0.017578 1.0794-0.62208 1.4519-2.0016 0.82812-3.0801-0.62208-1.0794-2.0036-1.4499-3.082-0.82617-0.49794 0.28717-0.37882 0.4715-0.56836 1.0215-0.09346 0.27115-0.64885 0.81561-0.95117 1.0312-0.093453-0.1043-0.19076-0.20643-0.29102-0.30664-0.59577-0.59569-1.2674-1.0705-1.9824-1.4258 0.81628-0.098977 1.2773-0.51621 1.2773-1.3301 0-0.94289-0.53936-1.9584-1.6387-2.627l0.28906-0.45508c0.066701-0.10538 0.22353-0.1888 0.34375-0.2207 0.22046-0.058508 0.41428-0.19912 0.53906-0.39648 0.27097-0.4274 0.14266-0.99335-0.28516-1.2637-0.4274-0.27097-0.99336-0.14266-1.2637 0.28516-0.12499 0.19724-0.16841 0.43197-0.12695 0.65625 0.02261 0.12232 0.013975 0.29892-0.052735 0.4043l-0.35742 0.56445c-0.59826-0.20498-1.3033-0.32414-2.1172-0.32422-0.78853-7.83e-5 -1.4743 0.11326-2.0605 0.30664l-0.3457-0.54688c-0.066696-0.10538-0.075343-0.28198-0.052734-0.4043 0.041462-0.22428-0.0019831-0.45901-0.12695-0.65625-0.16895-0.26738-0.45407-0.419-0.74805-0.42773zm3.1406 8.0801c0.75026-0.032799 1.5103 0.099258 2.2246 0.40234 0.31163 0.13223 0.35473 0.46753 0.11523 0.70703l-2.1934 2.1934-0.21484 0.21484-0.021484 0.021485-1.5664 1.5664-0.89844 0.89648-1.2422 1.2422c-0.2395 0.2395-0.57286 0.19637-0.70508-0.11524-0.12291-0.28967-0.21628-0.5876-0.2832-0.88867-0.01765-0.07941-0.033076-0.15841-0.046875-0.23828-0.14258-0.82528-0.081525-1.6716 0.17578-2.4629 0.014942-0.045949 0.030622-0.093112 0.046875-0.13867 0.24971-0.69924 0.65406-1.3515 1.2051-1.9023 0.052146-0.052123 0.10625-0.10286 0.16016-0.15234 0.91003-0.83536 2.0636-1.2941 3.2441-1.3457zm4.5859 2.8574c0.14948 0.0029 0.28696 0.0923 0.36133 0.26758 0.03894 0.09177 0.07609 0.18416 0.10938 0.27734 0.01621 0.04537 0.032005 0.09105 0.046875 0.13672 0.26158 0.80305 0.31637 1.6491 0.17578 2.4629-0.013761 0.07963-0.029376 0.15934-0.046876 0.23828-0.17738 0.80008-0.54626 1.5602-1.0977 2.209-0.08931 0.10508-0.18438 0.20777-0.2832 0.30664-1.4918 1.4923-3.7254 1.9062-5.6309 1.0977-0.31163-0.13223-0.35473-0.46753-0.11523-0.70703l6.1367-6.1367c0.10478-0.10478 0.22749-0.15458 0.34375-0.15234z" opacity=".8" stroke-linecap="round" stroke-linejoin="bevel" stroke-width="2.5"/></svg>
